<?xml version="1.0" encoding="UTF-8" standalone="no"?>
<!-- Created with Inkscape (http://www.inkscape.org/) -->

<svg
   version="1.1"
   id="svg1"
   width="648"
   height="648"
   viewBox="0 0 648 648"
   xmlns="http://www.w3.org/2000/svg"
   xmlns:svg="http://www.w3.org/2000/svg">
  <defs
     id="defs1" />
  <g
     id="g1">
    <g
       id="g2"
       transform="matrix(0.81032571,0,0,0.83680339,-6.5116824,-33.088035)">
      <path
         style="fill:#d0d0d0;fill-opacity:1"
         d="m 216.21523,813.33549 c -4.2844,-2.11167 -11.8997,-10.62242 -12.67881,-14.16966 -0.38455,-1.75084 0.7846,-8.13426 3.1546,-17.22383 3.5763,-13.71601 3.76493,-15.22117 3.75236,-29.942 -0.0118,-13.87153 -0.25393,-16.07785 -2.30429,-21 -3.0936,-7.42658 -7.1351,-13.66973 -9.60481,-14.83711 -1.11885,-0.52886 -4.41271,-3.01409 -7.31968,-5.52274 -18.10216,-15.62176 -28.19073,-37.40317 -28.20759,-60.90074 -0.0447,-62.31755 66.23133,-113.75533 129.83591,-100.76746 9.55542,1.95119 21.07815,5.88772 23.76761,8.11979 1.12939,0.9373 1.84013,0.14447 3.78193,-4.21876 1.31515,-2.95514 7.16486,-15.21865 12.99936,-27.25225 C 339.22632,513.58713 344,503.62502 344,503.4827 c 0,-0.14232 4.32641,-9.19665 9.61425,-20.12073 5.28784,-10.92409 11.30641,-23.46197 13.3746,-27.86197 4.48593,-9.54365 12.09304,-25.43061 24.07476,-50.27858 l 8.81395,-18.27858 -2.87404,-7.22142 C 395.4228,375.74964 392.5046,368.225 390.51864,363 c -1.98595,-5.225 -4.49009,-11.60842 -5.56474,-14.18538 -1.07464,-2.57696 -1.94723,-5.50196 -1.93908,-6.5 0.009,-1.06905 5.02344,-6.12873 12.20517,-12.31462 6.70469,-5.775 14.49428,-12.525 17.31019,-15 6.89683,-6.06186 9.37474,-8.21262 75.96982,-65.93989 31.9,-27.65218 65.83912,-57.09047 75.42027,-65.41841 9.58114,-8.32793 22.86809,-19.8667 29.52655,-25.6417 6.65845,-5.775 15.18927,-13.2 18.95737,-16.5 3.76811,-3.3 8.97789,-7.8 11.57729,-10 2.5994,-2.2 19.71918,-17.05 38.04395,-33 C 680.3502,82.55 698.52848,66.764174 702.4216,63.420387 708.70958,58.019659 735.79732,41 738.10489,41 c 1.73455,0 0.79917,1.315833 -9.4913,13.351811 C 717.4489,67.410289 705.46453,81.522493 691.9582,97.515385 687.30619,103.02385 666.175,127.97065 645,152.95272 c -21.175,24.98208 -41.2,48.62149 -44.5,52.53203 -3.3,3.91055 -21.975,25.94363 -41.5,48.96242 -19.525,23.01878 -39.55,46.66769 -44.5,52.55313 -17.05431,20.27719 -35.89905,42.50087 -36.46192,42.9997 -0.31031,0.275 -5.63025,6.575 -11.82209,14 -11.80411,14.155 -11.38383,13.41636 -28.44985,50 -1.41114,3.025 -7.95605,16.975 -14.54424,31 -6.58819,14.025 -13.55457,28.875 -15.48083,33 -1.92627,4.125 -8.90179,18.975 -15.50116,33 -6.59937,14.025 -13.35943,28.425 -15.02235,32 -1.66293,3.575 -7.80768,16.625 -13.65501,29 l -10.63151,22.5 1.54065,3.5 c 6.01798,13.67149 7.29227,34.78983 3.09712,51.32759 -2.78236,10.96837 -8.41326,23.60797 -14.53005,32.61533 -13.90481,20.47574 -37.96723,37.75387 -62.03876,44.54722 -17.26075,4.87125 -22.40812,8.33793 -30.53789,20.56686 -7.6545,11.51401 -13.24876,26.28831 -20.99338,55.443 -1.46102,5.5 -3.11927,10.5625 -3.68501,11.25 -1.40967,1.71307 -5.62203,1.53059 -9.56849,-0.41451 z m 52.34859,-112.2829 c 24.59402,-5.8967 45.62393,-22.21054 56.40942,-43.75928 11.67966,-23.33525 8.80531,-48.55685 -7.377,-64.73105 -7.16457,-7.16098 -14.48997,-11.53195 -24.703,-14.73997 -6.31541,-1.98373 -9.36135,-2.30649 -20.89324,-2.2139 -11.46241,0.092 -14.71702,0.4907 -21.56336,2.64139 -26.48076,8.31859 -46.28112,26.16537 -55.47247,49.99936 -3.62551,9.40124 -4.90871,22.44764 -3.13547,31.87843 3.62176,19.26198 19.57197,35.40074 40.37301,40.85027 9.96992,2.61196 25.6455,2.64418 36.36211,0.0747 z M 438.38512,361.9117 c 8.2196,-6.46553 6.98733,-18.35731 -2.40505,-23.20955 -9.86949,-5.09872 -21.41235,5.23627 -18.1203,16.22415 1.78366,5.95332 6.11055,9.0737 12.5821,9.0737 3.84875,0 6.01114,-0.5685 7.94325,-2.0883 z M 72.888279,531.10378 C 44.515177,524.91639 22.846465,505.1021 13.266692,476.58464 10.729333,469.03133 10.549175,467.34989 10.525423,451 10.496349,430.98701 11.733855,425.14749 19.589966,408.2264 32.05314,381.38228 56.988831,358.74913 84.5,349.31012 c 25.47273,-8.73963 50.76633,-7.78367 72,2.7212 4.4,2.1768 10.37163,5.76026 13.27029,7.96325 2.89865,2.20299 6.23621,4.00543 7.41679,4.00543 1.18058,0 9.15895,-1.11581 17.72971,-2.47958 8.57077,-1.36377 21.43321,-3.37945 28.58321,-4.47929 20.31656,-3.12517 37.61405,-5.79447 55,-8.48744 8.8,-1.36307 23.65,-3.65062 33,-5.08345 9.35,-1.43283 22.4,-3.47065 29,-4.52848 6.6,-1.05783 14.61901,-2.03998 17.82003,-2.18255 6.56327,-0.29231 5.28348,-1.78677 10.48246,12.24079 1.12115,3.025 4.53761,12.01413 7.59214,19.97584 3.05453,7.96171 5.22782,14.75188 4.82953,15.08926 -0.70033,0.59324 -18.87457,2.18529 -85.22416,7.46558 -17.325,1.37877 -41.85,3.38065 -54.5,4.44862 -12.65,1.06797 -27.6125,2.24249 -33.25,2.61005 -5.6375,0.36756 -10.25,1.0324 -10.25,1.47742 0,0.44502 0.71901,3.87455 1.5978,7.62118 2.5173,10.73224 1.48658,34.10306 -1.99831,45.31016 -3.61128,11.61355 -10.38083,25.04792 -17.03738,33.8112 -5.50771,7.25082 -5.53974,7.33327 -4.00364,10.30376 2.15398,4.16534 2.86335,11.62265 1.56384,16.44002 -1.4194,5.26176 -7.43209,12.22866 -12.5665,14.56078 -7.76757,3.52814 -19.96238,1.65015 -24.82547,-3.8231 -1.7591,-1.97982 -1.82017,-1.97142 -10.23782,1.40845 -12.06796,4.84554 -20.10744,6.40189 -35.49252,6.87095 -10.656637,0.32491 -15.313796,0.0161 -22.111721,-1.46639 z m 38.118751,-28.46369 c 15.23108,-4.23222 27.24827,-11.22873 38.34343,-22.32389 27.85311,-27.8531 32.18865,-67.59219 10.05958,-92.20503 -5.40186,-6.00817 -11.77466,-10.18676 -20.93602,-13.72757 -6.18841,-2.39178 -8.38211,-2.70277 -19.47402,-2.76073 -10.30502,-0.0538 -13.78405,0.33312 -19.812437,2.20366 -29.421792,9.12924 -51.976995,31.93643 -59.307651,59.97023 -2.701787,10.33213 -2.704205,24.28891 -0.0058,33.4589 5.216431,17.72698 19.219654,31.12085 37.919828,36.26974 8.085431,2.22624 23.49314,1.81554 33.21309,-0.88531 z M 475,376.3327 c 0,-1.01425 4.37353,-6.29624 38,-45.89329 32.25145,-37.97788 43.50325,-51.27839 55.19017,-65.23907 8.52336,-10.18164 10.44993,-11.92639 16,-14.48992 6.98278,-3.2253 46.74689,-21.36898 91.30983,-41.6631 15.95,-7.26369 31.925,-14.57423 35.5,-16.24565 7.446,-3.48123 41.92778,-19.23806 75.38956,-34.45009 12.58925,-5.72319 23.09889,-10.19647 23.35474,-9.94061 0.25585,0.25585 -2.32119,5.33055 -5.72677,11.27711 l -6.19196,10.81192 -11.66279,7.454 c -6.41453,4.0997 -15.48778,9.91051 -20.16278,12.9129 -4.675,3.0024 -11.425,7.33729 -15,9.6331 -3.575,2.29581 -10.325,6.65119 -15,9.67863 -4.675,3.02743 -20.65,13.29651 -35.5,22.82016 -14.85,9.52365 -31.95,20.52549 -38,24.44853 -10.08961,6.54247 -61.90119,39.91181 -78.49166,50.55268 -3.85883,2.475 -29.21405,18.77274 -56.34492,36.21719 -27.13087,17.44446 -50.07914,32.0051 -50.99614,32.35699 C 475.75028,376.92607 475,376.8174 475,376.3327 Z"
         id="path9" />
      <path
         style="fill:#b9b9b9;fill-opacity:1"
         d="m 217.42228,813.58157 c -4.84902,-2.11143 -10.58603,-7.69763 -12.61421,-12.28261 l -1.85835,-4.20105 3.68339,-14.29895 c 3.11011,-12.07349 3.75367,-16.41819 4.13495,-27.91531 0.35986,-10.85104 0.10662,-14.81125 -1.24695,-19.5 -2.9045,-10.06117 -7.07039,-16.74079 -12.97851,-20.80987 -6.79239,-4.6781 -16.28428,-14.56788 -20.88598,-21.76149 -24.92962,-38.97127 -11.71683,-92.04944 30.74314,-123.5007 30.42269,-22.53493 72.21065,-28.56166 103.6856,-14.95373 l 7.96577,3.44394 1.36269,-2.6509 c 0.74947,-1.458 8.67067,-17.9509 17.60266,-36.6509 8.93199,-18.7 18.93654,-39.625 22.23233,-46.5 3.2958,-6.875 8.3578,-17.45 11.2489,-23.5 2.8911,-6.05 7.73674,-16.175 10.7681,-22.5 3.03137,-6.325 8.44794,-17.66208 12.03685,-25.19352 l 6.52528,-13.69352 -7.00847,-18.30648 c -10.42792,-27.23827 -10.58706,-27.77204 -8.6931,-29.15693 0.86477,-0.63234 7.79864,-6.54967 15.4086,-13.14963 21.13001,-18.3256 39.31806,-34.12186 45.96503,-39.92046 4.8265,-4.21048 119.2687,-103.51349 169.51643,-147.09165 6.33403,-5.4933 29.99011,-26.02123 52.56905,-45.617635 24.90022,-21.611053 43.97638,-37.388598 48.48357,-40.099888 14.67491,-8.827645 22.09334,-12.941233 22.53738,-12.497186 0.24844,0.248431 -7.52222,9.851115 -17.26812,21.339296 C 711.59242,74.100579 700.18804,87.55 695.99526,92.5 c -4.19278,4.95 -22.87577,27 -41.51776,49 -18.64198,22 -71.21376,84.06464 -116.82616,137.92142 l -82.93165,97.92142 -7.72109,16.57858 C 442.752,403.03964 433.8764,421.975 427.27504,436 c -13.56205,28.81343 -14.58482,30.98992 -30.77962,65.5 -6.45256,13.75 -18.87031,40.17264 -27.595,58.71698 l -15.86306,33.71699 3.17202,9.28301 c 3.01081,8.81121 3.17504,10.07081 3.23132,24.78302 0.0513,13.41068 -0.25338,16.55302 -2.26036,23.31205 -6.67654,22.48493 -20.81813,42.8062 -39.5129,56.77949 -10.44581,7.80766 -27.40162,16.01061 -40.16744,19.43238 -12.02905,3.22428 -14.85702,4.84596 -21.76781,12.48263 -9.84388,10.87784 -18.04347,29.97218 -25.76268,59.99345 -1.76774,6.875 -3.66414,13.0625 -4.21423,13.75 -1.27836,1.59768 -4.42299,1.53412 -8.333,-0.16843 z M 258.5,702.91789 c 22.92604,-2.74215 43.74145,-14.21775 57.81945,-31.87603 C 326.92912,657.73397 332,643.96725 332,628.4714 c 0,-14.61633 -3.95112,-24.99998 -13.36959,-35.13568 -6.3695,-6.85453 -13.95239,-11.66358 -23.9332,-15.17835 -6.38595,-2.24883 -8.83163,-2.54144 -21.69721,-2.59594 -15.7506,-0.0667 -19.90768,0.75807 -33.5,6.64662 -19.71812,8.54241 -36.88423,25.91972 -44.24756,44.79195 -3.47856,8.91556 -4.24097,12.98078 -4.24686,22.64466 -0.007,11.13403 2.33403,19.49259 7.82112,27.92747 9.47239,14.56117 25.41787,23.64604 45.1733,25.7373 1.925,0.20377 3.95,0.44124 4.5,0.52772 0.55,0.0865 5.05,-0.3272 10,-0.91926 z M 435.28212,363.62888 c 4.93937,-2.10464 7.88264,-5.911 8.44779,-10.92505 0.72056,-6.39279 -1.77532,-11.06331 -7.35576,-13.76475 -5.70475,-2.76162 -10.24363,-2.00204 -15.20479,2.54452 -3.44399,3.15618 -3.66936,3.73101 -3.66936,9.359 0,5.00721 0.41237,6.44296 2.5,8.70433 2.66108,2.88255 7.3462,5.34944 10.28212,5.41393 0.98016,0.0215 3.23016,-0.57786 5,-1.33198 z M 74,531.10808 C 48.400301,525.42818 29.520728,510.9489 18.443209,488.5 11.567894,474.56698 10.486316,469.27033 10.5815,450 10.65447,435.22779 10.934708,432.60993 13.257749,425 19.16009,405.66483 28.371739,390.32403 42.49501,376.30915 64.110433,354.85961 90.525995,343.62289 119,343.76525 c 19.72258,0.0986 38.03181,6.19168 52.1439,17.35282 3.97106,3.14067 6.42413,3.44846 14.9389,1.87442 2.99757,-0.55413 11.29272,-1.87185 18.43366,-2.92827 15.40615,-2.27916 35.43623,-5.34717 75.48354,-11.56184 75.00557,-11.6396 83.0196,-12.81611 83.56747,-12.26825 0.25869,0.2587 3.19049,7.62435 6.51512,16.36811 3.32462,8.74377 7.16999,18.82276 8.54527,22.39776 3.89918,10.13581 4.85997,9.28997 -12.12786,10.67693 -15.33895,1.25234 -46.55292,3.76586 -91,7.32781 -13.75,1.10191 -32.65,2.64859 -42,3.43706 -9.35,0.78847 -21.32868,1.73573 -26.61929,2.10501 l -9.61929,0.67143 1.54137,4.64088 c 1.13024,3.403 1.56216,9.17535 1.61929,21.64088 0.0727,15.86661 -0.11033,17.63336 -2.74575,26.5 -3.6038,12.12472 -10.31999,25.70681 -17.29938,34.98439 -5.4089,7.18997 -5.45972,7.32172 -4.01046,10.39892 C 183.54191,512.61883 172.76985,530 156.15216,530 150.23179,530 145.85378,528.44082 141.5,524.78181 l -3,-2.52127 -7.32277,2.92925 c -12.75658,5.10289 -21.62395,6.93928 -35.67723,7.38859 -10.23613,0.32726 -14.807146,0.0147 -21.5,-1.4703 z m 38.79659,-28.75376 c 41.39787,-11.8385 69.49676,-56.6686 58.5804,-93.4615 -4.04122,-13.62067 -13.51661,-25.18264 -25.60126,-31.23895 -11.00618,-5.51582 -18.27944,-7.01369 -30.77573,-6.33799 -16.037727,0.8672 -27.04443,4.80603 -41.75617,14.94277 -37.133682,25.586 -47.211667,75.82466 -20.66487,103.01419 14.720784,15.07719 36.610389,19.83242 60.21763,13.08148 z m 362.37008,-126.3313 c 0.41422,-1.21407 99.92431,-118.89039 102.53349,-121.25166 1.04169,-0.94273 7.72281,-4.37822 14.84692,-7.63442 7.1241,-3.25621 26.90292,-12.31792 43.95292,-20.13715 17.05,-7.81923 45.625,-20.87548 63.5,-29.0139 37.36872,-17.01384 77.32134,-35.27147 87.5,-39.98593 17.88824,-8.28532 21.83385,-9.99944 22.19219,-9.6411 0.21178,0.21177 -2.44483,5.2557 -5.90357,11.20873 L 797.5,170.39128 784,179.15718 c -7.425,4.82125 -16.425,10.60794 -20,12.85933 -3.575,2.25138 -9.7667,6.20619 -13.75934,8.78845 -3.99264,2.58227 -13.66764,8.80454 -21.5,13.82727 -7.83236,5.02272 -49.34066,31.74174 -92.24066,59.37559 -42.9,27.63385 -81.15,52.24295 -85,54.68689 -3.85,2.44394 -10.375,6.63769 -14.5,9.31944 -4.125,2.68176 -10.425,6.72539 -14,8.98585 -3.575,2.26046 -9.75716,6.2227 -13.73814,8.80496 C 487.63395,369.83396 476.24625,377 475.5804,377 c -0.41089,0 -0.59707,-0.43964 -0.41373,-0.97698 z"
         id="path8" />
      <path
         style="fill:#a3a3a3;fill-opacity:1"
         d="m 217.42228,813.58157 c -4.09874,-1.78473 -10.17703,-7.20662 -11.97336,-10.68035 -2.09942,-4.05982 -1.81127,-7.94651 1.58518,-21.38227 1.66579,-6.58957 3.4691,-16.22794 4.00734,-21.4186 2.13634,-20.60221 -3.47193,-38.48708 -14.31972,-45.66581 -14.06656,-9.30881 -25.73432,-25.94423 -30.91187,-44.07288 -3.19263,-11.17869 -3.16025,-30.27824 0.0718,-42.36166 10.78834,-40.33323 46.83432,-72.12212 90.04454,-79.41014 20.08268,-3.38722 42.25003,-0.50394 58.37166,7.59234 l 3.79788,1.9073 8.54016,-17.72655 c 10.69421,-22.19764 26.76433,-55.73293 52.98425,-110.56813 l 20.41985,-42.70517 -8.59179,-22.52418 c -4.72549,-12.38829 -8.31067,-22.97902 -7.96708,-23.53496 0.50379,-0.81516 62.07474,-54.40367 168.41974,-146.58476 6.37951,-5.52983 44.36638,-38.48883 84.41527,-73.2422 70.6437,-61.302744 73.24936,-63.444196 87.33587,-71.776549 7.98584,-4.723727 14.69727,-8.411036 14.91428,-8.194021 0.21702,0.217015 -6.45137,8.465873 -14.81864,18.330796 C 693.84541,94.818218 622.81195,178.6507 564.50438,247.5 531.89922,286 493.94842,330.775 480.16925,347 l -25.05303,29.5 -43.70626,93 C 387.37151,520.65 364.353,569.63114 360.25772,578.34699 l -7.44597,15.84698 3.3205,9.65302 c 3.20093,9.3054 3.31835,10.19316 3.26074,24.65301 -0.0533,13.37606 -0.35557,15.97436 -2.79211,24 -11.20994,36.92406 -40.49291,64.4812 -79.65682,74.96215 -10.86746,2.90833 -16.5353,6.34016 -22.5535,13.65596 -8.95846,10.89002 -15.92118,27.25323 -23.45632,55.12513 -2.26473,8.37707 -4.54225,16.02432 -5.06115,16.9939 -1.11303,2.07971 -4.17869,2.20466 -8.45081,0.34443 z m 50.4037,-112.05438 c 19.10022,-4.0448 39.58635,-17.37418 50.61513,-32.93291 8.16149,-11.51374 11.89702,-20.4567 13.53159,-32.39492 3.80635,-27.80001 -13.15337,-51.9565 -41.58218,-59.22736 -37.83087,-9.67551 -82.15327,14.19504 -96.15612,51.78645 -3.41205,9.15982 -4.27267,26.13905 -1.76515,34.82474 8.69278,30.11055 39.38051,45.56259 75.35673,37.944 z M 436.58311,363.39354 c 9.80933,-4.65483 9.9346,-19.49434 0.20673,-24.48871 -4.78441,-2.45636 -8.12455,-2.40671 -12.74376,0.18943 -4.76731,2.67937 -7.04705,6.58345 -7.04234,12.06003 0.009,10.42024 10.10842,16.73351 19.57937,12.23925 z M 75.806813,531.49304 C 54.161175,527.39648 34.843186,514.518 22.877406,496.20726 14.841646,483.91047 11.105051,471.81781 10.298983,455.5 9.4216254,437.73904 12.548641,422.88453 20.581101,406.65607 36.370392,374.756 65.188853,352.60567 100.20393,345.45669 c 10.22971,-2.08859 32.00345,-1.53836 41.29607,1.04356 8.66848,2.40851 21.07693,8.49688 28,13.73858 l 6,4.54281 25,-3.86735 c 13.75,-2.12705 33.775,-5.2332 44.5,-6.90256 27.91003,-4.34425 95.65349,-14.77995 107.83902,-16.61231 5.68647,-0.85509 10.4663,-1.40727 10.62184,-1.22706 0.7735,0.8961 18.24535,47.38292 17.93702,47.72448 -0.38468,0.42615 -5.88043,0.92381 -45.39788,4.11098 -14.025,1.13114 -39.225,3.17575 -56,4.54357 -16.775,1.36781 -42.192,3.40782 -56.48223,4.53333 -14.29022,1.12552 -26.08622,2.15039 -26.21332,2.2775 -0.12711,0.12711 0.50625,2.46011 1.40747,5.18444 1.25057,3.78042 1.63991,8.86044 1.6442,21.45334 0.005,15.06963 -0.2293,17.2802 -2.70442,25.5 -3.60107,11.95901 -10.08956,25.21506 -17.09111,34.9173 l -5.71346,7.91729 1.81416,4.02308 c 2.10912,4.6772 2.3057,13.92639 0.37524,17.65536 -4.47386,8.6419 -12.51813,13.97832 -21.03653,13.95524 -4.79371,-0.013 -12.19496,-2.86737 -15.51438,-5.9833 -1.98148,-1.86 -2.1536,-1.835 -10.53648,1.5309 -4.68715,1.88199 -11.88068,4.1546 -15.98562,5.05025 -10.46746,2.28387 -28.652596,2.72563 -38.156707,0.92692 z M 110,503.3702 c 3.575,-0.85148 10.61904,-3.522 15.65343,-5.93449 33.15048,-15.88579 53.31472,-51.78485 46.89711,-83.49247 -3.84559,-18.99996 -15.7346,-32.94363 -34.05054,-39.93514 -9.05325,-3.45578 -25.32555,-3.95207 -36.56227,-1.1151 -36.66488,9.25688 -64.174712,42.22211 -64.346598,77.107 -0.05663,11.49348 1.486843,18.25048 6.281028,27.49699 7.898685,15.23414 22.178041,24.78582 41.62784,27.84552 4.722253,0.74287 17.37757,-0.27592 24.5,-1.97231 z M 476.61275,373.89815 c 1.16202,-1.31898 19.80857,-23.32315 41.4368,-48.89815 21.62822,-25.575 44.1341,-52.12979 50.01307,-59.01064 l 10.68903,-12.51064 22.37417,-10.1758 c 12.3058,-5.5967 49.59918,-22.62197 82.87418,-37.83395 33.275,-15.21198 74.80956,-34.19353 92.29901,-42.18121 17.48946,-7.98769 32.05168,-14.27041 32.36049,-13.9616 0.30881,0.30882 -2.07575,5.15091 -5.29901,10.76022 l -5.86049,10.19874 -138,88.78124 c -75.9,48.82968 -147.55976,94.93194 -159.24392,102.44946 -11.68415,7.51753 -22.25915,13.91849 -23.5,14.22436 L 474.5,376.29631 Z"
         id="path7" />
      <path
         style="fill:#8c8c8c;fill-opacity:1"
         d="M 215.23571,811.96222 C 208.7735,808.25623 204,802.02335 204,797.29147 c 0,-1.87465 1.31913,-8.66964 2.93141,-15.09996 3.19329,-12.73598 5.07844,-24.68375 5.05123,-32.01387 -0.0267,-7.20509 -2.64757,-18.02154 -6.04103,-24.93205 -2.56298,-5.21929 -4.39128,-7.25925 -11.04696,-12.32579 -23.81297,-18.12727 -35.5614,-47.70496 -30.49195,-76.7661 2.06006,-11.80944 6.92495,-24.81838 13.20518,-35.31118 5.62419,-9.39673 18.68365,-23.65488 28.18019,-30.76677 20.24247,-15.15944 48.34733,-24.05233 71.7435,-22.70095 11.157,0.64444 25.88559,4.03514 34.87215,8.028 3.24704,1.4427 5.98694,2.50477 6.08866,2.36015 0.10173,-0.14462 18.52856,-38.59881 40.94853,-85.45375 l 40.76357,-85.1908 -8.66807,-22.72414 -8.66806,-22.72414 2.81582,-2.70513 C 387.23288,337.47717 405.825,321.25459 427,302.91481 462.4701,272.19396 574.06795,175.38944 670.22162,91.934466 710.59504,56.893034 711.33947,56.332017 735,43.116347 l 4.5,-2.51349 -4.5804,5.448571 C 730.40042,51.427174 646.54824,150.44898 519.62556,300.29413 l -65.04659,76.79414 -6.8736,14.70586 c -6.71579,14.36827 -24.1408,51.46324 -48.71484,103.70587 -6.72648,14.3 -13.26315,28.25 -14.52593,31 -1.26278,2.75 -8.58848,18.33989 -16.27932,34.6442 -7.69084,16.30431 -14.27971,30.57797 -14.64194,31.71925 -0.38926,1.22645 0.35572,4.887 1.82167,8.95095 11.32835,31.40481 0.42384,70.28399 -27.17752,96.89934 -13.26501,12.79115 -31.32724,23.08505 -49.42099,28.16569 -13.15751,3.69456 -15.91739,5.11551 -21.93477,11.29333 -6.04762,6.20886 -11.80854,16.02518 -16.76487,28.56654 -3.48064,8.80729 -5.40202,15.09005 -11.98332,39.18445 -2.80672,10.2755 -4.26474,10.96077 -12.84783,6.03847 z M 270.44602,701.0242 c 27.15526,-6.98066 50.64485,-28.11464 58.93432,-53.0242 11.94293,-35.88813 -9.8513,-68.56129 -48.63414,-72.9106 -45.06951,-5.05434 -90.34805,32.58495 -90.11441,74.9106 0.0648,11.73911 3.00095,20.9286 9.67553,30.28218 14.14159,19.81767 41.85398,28.01302 70.1387,20.74202 z m 166.0642,-337.46402 c 9.902,-4.13732 10.03562,-20.22609 0.20671,-24.89022 -4.45528,-2.11416 -7.97858,-2.11416 -12.43386,0 -4.6274,2.19585 -7.27559,6.68378 -7.27559,12.33004 0,10.60377 9.51659,16.73266 19.50274,12.56018 z M 77.341573,531.59107 C 58.925627,528.06785 46.808433,521.84291 34.398815,509.53015 24.206711,499.4176 18.466603,490.55798 14.618469,479 -3.9674013,423.17683 36.627932,359.01686 98.867774,345.84595 c 7.894396,-1.67057 11.977666,-1.94728 22.632226,-1.53371 7.23577,0.28086 15.88211,1.25141 19.5,2.18887 8.82341,2.28629 23.43035,9.47708 29.41198,14.4791 3.80124,3.17871 5.49721,3.98894 7.5,3.58304 1.42341,-0.28848 17.43802,-2.80466 35.58802,-5.59152 18.15,-2.78686 59.27736,-9.10571 91.39414,-14.04189 32.11678,-4.93619 58.48813,-8.85225 58.603,-8.70236 1.07386,1.40125 17.65012,46.95859 17.23658,47.37213 -0.76714,0.76714 -13.26344,1.83805 -132.73372,11.37499 -54.66105,4.36342 -51.24271,3.96491 -50.46819,5.88347 1.54101,3.81719 3.40095,17.23103 3.4333,24.76094 0.0918,21.37347 -8.18562,45.02022 -22.04966,62.99058 l -4.14151,5.36817 1.73231,4.26112 c 4.14221,10.18896 0.91918,21.5577 -7.77327,27.41902 -8.34211,5.62509 -17.22106,5.5702 -25.73474,-0.15908 l -4.92131,-3.3118 -7.28846,2.9864 c -15.70059,6.43321 -38.841458,9.21186 -53.446897,6.41765 z M 112.05875,502.9165 c 33.18443,-9.19587 59.28941,-39.87335 61.62859,-72.42331 2.03446,-28.3099 -14.14705,-51.41834 -40.68734,-58.10464 -8.42824,-2.12333 -26.74285,-1.4119 -35.5,1.379 C 84.669007,377.85677 73.35821,384.5824 63.62425,393.91076 52.699588,404.3802 46.169671,414.10633 41.744522,426.5 c -11.855848,33.2051 0.559045,64.49033 29.956344,75.48927 11.817645,4.42155 26.528562,4.75953 40.357884,0.92723 z M 483.10827,366.40423 C 487.72599,360.95691 511.1391,333.325 535.1374,305 l 43.63327,-51.5 20.36467,-9.21139 C 610.3359,239.22235 633.9,228.49149 651.5,220.44226 c 17.6,-8.04923 49.55,-22.64407 71,-32.43297 21.45,-9.7889 49.51135,-22.59669 62.35856,-28.46176 12.8472,-5.86506 23.56674,-10.45556 23.82119,-10.20111 0.25445,0.25445 -2.1569,5.03489 -5.35855,10.6232 L 797.5,170.13018 638,272.72352 c -87.725,56.42633 -160.35221,102.81645 -161.39379,103.08914 -1.14863,0.30072 1.40979,-3.40129 6.50206,-9.40843 z"
         id="path6" />
      <path
         style="fill:#767676;fill-opacity:1"
         d="m 219,813.88635 c -7.68169,-3.03235 -15,-11.40285 -15,-17.15663 0,-1.42701 1.31099,-7.68747 2.91332,-13.91214 5.77915,-22.45065 6.43262,-37.84766 2.13217,-50.23767 -3.38003,-9.7382 -6.52698,-14.07746 -14.63468,-20.17949 -13.27386,-9.9902 -23.02906,-24.2584 -27.96369,-40.90042 -5.08567,-17.15137 -3.363,-39.05747 4.53004,-57.60586 9.30656,-21.87008 29.85388,-43.20363 52.72951,-54.74716 27.76492,-14.01078 62.09742,-15.55057 87.55608,-3.92684 3.71951,1.69823 6.93407,2.90593 7.14346,2.68378 C 319.12368,557.14272 400,387.79637 400,387.05527 c 0,-0.4071 -3.8482,-10.79015 -8.55157,-23.07344 l -8.55156,-22.33324 2.30156,-2.18438 C 386.4643,338.26281 411.575,316.42661 441,290.93933 470.425,265.45206 506.2,234.43495 520.5,222.01244 559.76613,187.90166 664.70959,96.84459 688.54826,76.200754 706.02971,61.062151 711.931,56.604313 723.37265,49.894406 c 7.57687,-4.443426 13.93108,-7.924008 14.12046,-7.734628 0.18938,0.18938 -13.00659,16.114949 -29.32439,35.390153 C 665.79047,127.60874 517.78273,302.27841 483.66116,342.5 c -24.44233,28.81198 -29.41967,35.22071 -32.61924,42 -3.76878,7.98536 -19.0054,40.40764 -50.51887,107.5 -9.17095,19.525 -23.69513,50.48144 -32.27596,68.79208 l -15.60151,33.29208 2.66076,7.88245 c 11.00752,32.60964 0.73477,69.22334 -26.96686,96.11414 -9.93552,9.64471 -17.14598,14.80586 -28.83948,20.64291 -7.92952,3.95819 -20.76031,8.52815 -27.5,9.79472 -5.28874,0.99389 -13.42917,6.80129 -18.54871,13.23268 -8.74656,10.98779 -15.31836,26.88372 -23.4464,56.71233 -2.24257,8.22986 -4.62358,15.31047 -5.29114,15.73469 -1.536,0.97608 -2.59823,0.91812 -5.71375,-0.31173 z m 43,-110.92698 c 19.36568,-3.05539 36.85323,-12.48109 50.59533,-27.27063 8.31517,-8.94895 12.76212,-16.13655 16.71925,-27.02326 2.57169,-7.07516 2.98251,-9.63429 3.07662,-19.16548 0.0901,-9.12109 -0.29053,-12.15574 -2.22822,-17.76623 -14.04842,-40.67662 -69.09682,-49.83579 -110.06046,-18.31229 -14.52177,11.1752 -25.42428,28.30353 -28.6083,44.94487 -1.85399,9.68993 -1.85128,13.27581 0.0167,22.13365 3.43833,16.30427 13.5409,29.12018 28.6478,36.34201 4.5877,2.19314 10.81628,4.47146 13.84128,5.06292 3.025,0.59146 6.4,1.25261 7.5,1.46923 4.01525,0.79068 14.16052,0.58541 20.5,-0.41479 z M 437.69567,363.044 c 4.62116,-2.8177 6.68895,-6.52346 6.68895,-11.98753 0,-8.58243 -6.7035,-14.73149 -15.03591,-13.79231 -7.89579,0.88997 -12.66662,6.2591 -12.67688,14.26666 -0.0133,10.37626 12.05212,16.98359 21.02384,11.51318 z M 80.060575,531.97861 C 52.401351,528.11767 29.583196,511.45897 17.949701,486.63374 -8.0089437,431.23944 33.343281,359.37999 98.862658,346.02799 c 27.039262,-5.51025 56.581922,1.20922 73.249592,16.66061 l 2.61224,2.42163 93.84596,-14.48545 c 51.61528,-7.967 94.12922,-14.31039 94.47543,-14.09643 0.97544,0.60286 18.28963,46.46947 17.74671,47.0124 -0.54986,0.54986 -12.65265,1.71336 -41.29259,3.96966 -84.4044,6.64952 -141.74203,11.39828 -142.11376,11.77001 -0.12721,0.12722 0.49894,3.15367 1.39145,6.72544 2.46002,9.84483 2.19113,31.07478 -0.53188,41.99414 -3.75784,15.06905 -10.97777,29.79762 -20.51423,41.84884 l -3.42545,4.32873 1.84693,3.62266 c 1.17822,2.31101 1.84694,5.76002 1.84694,9.52588 0,13.80902 -12.10412,24.32033 -25.4605,22.11009 -4.92449,-0.81491 -7.23201,-1.92808 -10.70436,-5.16391 l -2.66486,-2.48333 -8.10346,3.12503 c -16.69915,6.43987 -36.166128,9.13615 -51.006245,7.06462 z M 105,504.57231 c 32.76938,-5.93307 61.53836,-33.74979 67.58387,-65.34682 2.80715,-14.67161 0.83566,-30.08745 -5.31202,-41.53679 -4.31307,-8.03259 -13.81226,-16.9234 -22.41376,-20.97826 -9.83451,-4.63612 -15.38985,-5.8379 -26.79047,-5.79554 -20.44383,0.076 -39.821298,8.39524 -55.753099,23.93633 -29.236593,28.51959 -33.643669,70.91932 -9.85149,94.77951 C 65.708356,502.91393 84.555112,508.27396 105,504.57231 Z m 371,-129.1199 c 0,-0.30117 18.77028,-22.68867 41.71174,-49.75 22.94146,-27.06133 46.01033,-54.29075 51.26416,-60.50984 l 9.55241,-11.30742 56.98585,-26.03427 c 148.01237,-67.62019 172.80798,-78.86207 173.16167,-78.50839 0.20887,0.20888 -2.25686,4.96314 -5.47942,10.56502 l -5.85919,10.18524 -64.91861,41.74993 C 696.71337,234.80514 624.68979,281.13427 572.3662,314.7963 520.04261,348.45834 476.95511,376 476.6162,376 476.27729,376 476,375.75358 476,375.45241 Z"
         id="path5" />
      <path
         style="fill:#606060;fill-opacity:1"
         d="m 217.5,813.12899 c -4.78092,-2.18379 -12.15807,-9.91847 -13.12162,-13.75754 -0.44577,-1.77608 0.43945,-7.36288 2.50493,-15.8091 4.07486,-16.66312 5.10727,-23.25982 5.09612,-32.56235 -0.0186,-15.51619 -5.4099,-29.17072 -14.23385,-36.05003 -15.2325,-11.87554 -24.66117,-24.33887 -30.07597,-39.75606 -2.71504,-7.73035 -3.09945,-10.25462 -3.46839,-22.77573 -0.49742,-16.8813 1.43899,-26.49249 8.26865,-41.04079 5.892,-12.55092 11.4295,-20.39719 21.47107,-30.42308 28.56954,-28.52492 70.06786,-40.02578 106.38141,-29.48259 4.8523,1.4088 10.57187,3.45399 12.71017,4.54487 2.13829,1.09087 4.28671,1.98341 4.77426,1.98341 0.48755,0 3.72636,-5.9625 7.19736,-13.25 6.4243,-13.48809 21.73321,-45.46815 42.00609,-87.75 33.79984,-70.49417 33.17642,-69.12018 32.53001,-71.69569 -0.31178,-1.24225 -4.1582,-11.5966 -8.5476,-23.00966 -7.54298,-19.61284 -7.88506,-20.83998 -6.23668,-22.37289 0.95922,-0.89202 24.01904,-20.90237 51.24404,-44.46743 27.225,-23.56505 57.825,-50.10161 68,-58.97011 10.175,-8.8685 57.875,-50.25869 106,-91.97818 48.125,-41.7195 89.975,-78.060027 93,-80.756724 4.87786,-4.348468 33.73594,-22.424393 34.45249,-21.580113 0.15441,0.181939 -9.67173,12.071795 -21.83587,26.421903 C 682.30238,107.8921 625.50086,174.9418 544.99194,270 c -39.82751,47.025 -76.48127,90.28055 -81.4528,96.12346 -8.99023,10.56597 -9.12393,10.80404 -24.70933,44 -42.5974,90.72982 -56.36586,120.06509 -70.80957,150.86787 l -15.70439,33.49132 2.7321,7.50868 c 9.48888,26.07843 3.7569,57.54298 -15.14104,83.11385 -13.98535,18.92362 -37.01663,34.79592 -59.40691,40.94103 -15.1659,4.16235 -16.64987,4.91308 -23.5,11.8884 -10.71825,10.91414 -18.67145,28.54172 -26.64909,59.06539 -3.58008,13.69792 -5.41194,18.01763 -7.62396,17.97804 -0.67482,-0.0121 -3.02695,-0.84415 -5.22695,-1.84905 z m 53,-111.68311 c 41.15319,-11.13167 69.19919,-50.39998 60.96022,-85.35281 -6.80368,-28.8638 -37.73924,-46.52746 -71.26825,-40.69293 -12.43301,2.16353 -22.99869,6.38634 -33.82622,13.51943 -15.88291,10.46354 -27.20754,24.73218 -33.00121,41.58043 -2.36467,6.87657 -2.74582,9.54472 -2.71416,19 0.0281,8.37995 0.51498,12.35899 2.04425,16.70558 6.81561,19.37178 23.29655,32.90048 44.82478,36.79532 6.99798,1.26606 25.8346,0.37792 32.98059,-1.55502 z M 438.10212,362.73007 c 8.91342,-5.95456 8.70374,-18.21924 -0.40645,-23.77407 -6.16044,-3.75626 -15.22609,-1.65468 -19.23138,4.45816 C 412.53501,352.46339 419.5251,365 430.5,365 c 2.70628,0 5.41489,-0.80877 7.60212,-2.26993 z M 82,532.02654 C 41.345293,526.85311 12.953183,496.52209 10.365424,455.5 9.1270258,435.86845 15.701606,412.79083 27.69146,394.68339 c 6.347731,-9.58654 20.724706,-24.33869 29.903895,-30.68426 9.99479,-6.90939 23.888146,-13.35608 35.962416,-16.68701 8.680139,-2.39458 11.782889,-2.74716 24.442229,-2.77744 12.05523,-0.0288 15.90347,0.34907 22.82402,2.24137 10.02897,2.74225 21.85365,8.53021 29.05284,14.22085 l 5.29276,4.18368 33.66519,-5.20934 c 128.37046,-19.86403 153.73571,-23.66197 154.29188,-23.1021 1.01213,1.01886 18.09079,46.24672 17.63536,46.70214 -0.49162,0.49162 -8.60451,1.179 -117.26205,9.93516 -52.02745,4.19263 -65.73633,5.39655 -66.14904,5.80927 -0.21469,0.21469 0.2817,3.28815 1.10309,6.82992 6.16787,26.59536 -0.91178,57.05026 -18.78516,80.80904 l -5.46999,7.27117 1.87859,4.13708 c 9.31727,20.51874 -15.87284,40.49224 -33.39914,26.48252 l -3.82166,-3.05485 -9.17834,3.49569 C 114.01203,531.25301 95.967534,533.80394 82,532.02654 Z m 29.5,-28.59589 c 15.03974,-4.04332 28.72237,-12.547 40.57856,-25.21934 14.65117,-15.65971 21.8601,-32.90925 21.90408,-52.41209 0.0359,-15.90686 -5.18758,-29.18866 -15.55784,-39.55935 C 147.56639,375.38102 129.62549,369.02562 114,370.50281 60.615384,375.54965 22.301277,431.98888 42.533188,475.7782 48.999223,489.77309 63.11725,500.89374 79,504.50281 c 7.923147,1.80039 23.75823,1.278 32.5,-1.07216 z M 476,375.60151 c 0,-0.21917 16.71118,-20.13167 37.13596,-44.25 20.42477,-24.11833 43.48727,-51.37205 51.25,-60.56381 L 578.5,254.07539 620,235.09999 c 22.825,-10.43648 60.4,-27.60307 83.5,-38.14799 23.1,-10.54492 56.13689,-25.64856 73.41531,-33.56365 17.27842,-7.91508 31.54,-14.26637 31.6924,-14.11397 0.1524,0.1524 -2.28397,4.83346 -5.41417,10.40237 l -5.69125,10.12528 -126.44555,81.34898 C 601.5117,295.89296 542.78618,333.68277 540.5556,335.12839 516.36602,350.80537 476.87351,376 476.48947,376 476.22026,376 476,375.82068 476,375.60151 Z"
         id="path4" />
      <path
         style="fill:#494949;fill-opacity:1"
         d="m 215.92666,812.0473 c -4.78569,-2.56313 -10.56034,-9.10295 -11.39551,-12.90548 -0.44061,-2.00609 0.19819,-6.49886 1.82882,-12.86239 6.18538,-24.13835 7.17138,-38.2422 3.58633,-51.29953 -2.76266,-10.06207 -7.16666,-17.13788 -13.03228,-20.93868 -2.59946,-1.68439 -8.14131,-6.69271 -12.31523,-11.12961 -18.2391,-19.38828 -25.00893,-47.26986 -18.09513,-74.52488 7.4294,-29.28755 28.19213,-54.20808 57.34191,-68.8248 17.53081,-8.79057 33.24006,-12.08375 53.85779,-11.2904 14.52106,0.55876 21.627,2.08831 34.08464,7.33669 3.4584,1.45701 6.52392,2.4132 6.81226,2.12485 0.43714,-0.43713 21.23522,-43.48748 35.37969,-73.23307 2.09226,-4.4 6.50097,-13.625 9.79712,-20.5 3.29615,-6.875 8.91442,-18.62005 12.48505,-26.1001 3.57063,-7.48006 10.45792,-21.79531 15.3051,-31.81166 10.27756,-21.23787 10.34295,-16.03808 -0.55443,-44.08824 -3.95294,-10.175 -7.26044,-18.96487 -7.34998,-19.53304 -0.1542,-0.97841 10.30292,-10.45909 36.3878,-32.99006 6.35283,-5.48729 48.60467,-42.1519 93.89298,-81.4769 45.28831,-39.325 84.46438,-73.3 87.05793,-75.5 2.59355,-2.2 28.08656,-24.30169 56.65114,-49.11486 48.06612,-41.753579 52.92133,-45.694302 65.16611,-52.892024 7.27679,-4.277437 13.38553,-7.600749 13.57498,-7.385137 C 736.58321,43.32359 717.85267,65.775 694.77035,93 652.03114,143.40977 596.4553,209.00153 505.36092,316.54494 L 454.5,376.58988 445.33692,396.04494 C 440.29723,406.74522 428.88521,431.025 419.97688,450 c -8.90834,18.975 -23.06906,49.125 -31.46827,67 -8.39921,17.875 -20.0469,42.6866 -25.88375,55.13689 l -10.61247,22.63689 2.05385,4.64307 c 6.51339,14.72459 6.82074,39.11221 0.7194,57.08315 -2.95925,8.71619 -10.03239,22.01164 -15.74357,29.5933 -9.4716,12.57369 -25.3292,25.54566 -40.54207,33.1646 -5.45672,2.73284 -23.47262,8.73642 -26.26196,8.75148 -3.21939,0.0174 -11.8592,5.7955 -16.8168,11.2467 -9.11775,10.02555 -16.56976,26.3197 -23.43603,51.24392 -6.82168,24.76238 -6.08968,22.9696 -9.48521,23.23056 -1.65,0.12681 -4.608,-0.63065 -6.57334,-1.68326 z M 274,700.47423 C 298.04539,692.81537 315.96732,677.69358 326.11703,656.5 331.05796,646.18286 333,638.42368 333,629 c 0,-25.09197 -16.37293,-45.5998 -42,-52.6069 -9.5792,-2.61919 -27.97156,-2.3974 -38.5,0.46427 -9.07001,2.46526 -20.22602,7.49503 -27.24414,12.28322 -11.07462,7.55579 -22.73644,20.82667 -28.64997,32.60301 -3.43086,6.83228 -6.59005,20.16366 -6.59888,27.84644 -0.009,7.68411 3.11704,20.05912 6.54391,25.90664 6.3335,10.80729 17.29473,19.86045 29.434,24.3103 9.56483,3.50614 14.1861,4.1333 27.51508,3.73407 9.59458,-0.28738 13.70384,-0.90213 20.5,-3.06682 z M 439.45285,361.90726 c 6.80189,-5.97214 7.01881,-15.20702 0.50381,-21.44879 C 437.19584,337.81345 436.19392,337.5 430.5,337.5 c -5.69392,0 -6.69584,0.31345 -9.45666,2.95847 -6.515,6.24177 -6.29808,15.47665 0.50381,21.44879 C 424.5595,364.55213 425.85598,365 430.5,365 c 4.64402,0 5.9405,-0.44787 8.95285,-3.09274 z M 82.773705,531.91681 C 63.406496,529.86636 43.521949,520.16008 31.659737,506.96644 3.2198358,475.33443 3.2576587,427.62625 31.752886,389.47226 47.236852,368.73983 68.663638,354.14184 93.5,347.40416 c 8.78984,-2.38453 11.81523,-2.71314 25,-2.71539 13.3871,-0.002 15.94587,0.28411 23.79659,2.66346 10.73441,3.25332 18.16448,6.92951 26.66304,13.19214 l 6.45962,4.76013 14.04038,-2.21053 c 7.7222,-1.2158 22.59037,-3.51467 33.04037,-5.10862 10.45,-1.59394 24.85,-3.79972 32,-4.90173 47.10604,-7.26035 105.29511,-16.16679 106.86846,-16.35734 1.54411,-0.187 2.89149,2.46436 7.76188,15.27372 3.24138,8.525 7.23808,18.96473 8.88154,23.1994 1.64347,4.23467 2.98812,7.88903 2.98812,8.12079 0,0.51376 -6.2582,1.11273 -38.5,3.68483 -13.75,1.09692 -36.025,2.89257 -49.5,3.99033 -13.475,1.09777 -38.9,3.12399 -56.5,4.50271 -40.25289,3.15326 -39.84364,3.09199 -39.10686,5.85499 0.31488,1.18082 1.33317,6.78598 2.26286,12.45591 1.45443,8.87013 1.5233,11.74608 0.49345,20.60574 -1.50552,12.95168 -4.20994,22.77611 -9.20593,33.44267 -4.02606,8.59574 -10.35759,18.67196 -14.59359,23.22476 l -2.40246,2.58214 2.0043,4.41786 c 3.68673,8.12625 2.15312,18.03468 -3.75482,24.25945 -8.08277,8.51623 -22.45227,9.13662 -30.97854,1.33746 -2.259,-2.06636 -2.32831,-2.06873 -7,-0.23983 -19.42343,7.60401 -35.176433,10.19995 -51.444705,8.4776 z M 111.5,503.54158 c 21.46438,-5.74086 42.17733,-22.0429 52.90351,-41.63749 6.30726,-11.52212 8.77547,-20.08342 9.34202,-32.40409 0.62203,-13.52701 -0.62406,-20.02777 -5.83443,-30.43778 -7.18443,-14.35405 -20.57984,-24.11059 -37.92979,-27.62614 -30.445785,-6.1691 -68.013417,13.72769 -83.773348,44.36854 -7.275828,14.14585 -8.691724,19.90845 -8.647668,35.19538 0.03384,11.74339 0.344634,14.28071 2.388508,19.5 3.382695,8.63814 7.886013,15.24465 14.521716,21.30385 C 65.672901,502.03296 78.184443,506.2872 95,505.58488 c 5.775,-0.2412 13.2,-1.16069 16.5,-2.0433 z M 478.12184,372.98377 C 479.42983,371.32484 502.55,343.91931 529.5,312.08258 l 49,-57.88496 10.36393,-4.69824 c 5.70017,-2.58404 14.02517,-6.40556 18.5,-8.49227 4.47484,-2.08671 18.03607,-8.29569 30.13607,-13.79772 28.17595,-12.81198 78.93037,-35.99266 88,-40.19157 3.85,-1.78241 16.675,-7.64554 28.5,-13.02918 11.825,-5.38364 28.025,-12.79883 36,-16.47822 7.975,-3.67938 15.56133,-7.10685 16.85851,-7.61661 l 2.35852,-0.92682 -2.24394,3.7665 c -1.23417,2.07158 -3.76389,6.5146 -5.62161,9.87337 -1.85771,3.35877 -4.15927,6.78497 -5.11457,7.61377 -0.9553,0.8288 -16.13691,10.73257 -33.73691,22.00836 -17.6,11.2758 -89.08412,57.2371 -158.8536,102.13623 C 533.87692,339.26435 476.55674,376 476.26824,376 c -0.28851,0 0.54561,-1.3573 1.8536,-3.01623 z"
         id="path3" />
      <path
         style="fill:#333333;fill-opacity:1"
         d="m 215.85247,812.00925 c -4.46869,-2.39131 -10.53863,-9.30388 -11.3288,-12.90147 -0.3261,-1.48475 0.4988,-6.8394 1.86909,-12.13274 7.74069,-29.9017 7.56314,-47.83082 -0.62629,-63.24383 -2.28058,-4.29219 -4.6267,-6.88489 -9.16581,-10.12916 -12.26177,-8.76396 -22.09204,-21.47394 -27.54514,-35.61429 -4.04902,-10.49948 -5.42052,-20.15667 -4.77098,-33.59425 0.85003,-17.58526 7.47454,-35.3374 19.05907,-51.07387 14.50137,-19.69872 36.8688,-34.77881 62.28538,-41.99273 9.06559,-2.57306 11.25812,-2.80133 26.87101,-2.79757 14.91829,0.004 18.04086,0.29837 25.5,2.40727 4.675,1.32174 10.75,3.44732 13.5,4.72351 2.75,1.27619 5.56382,2.32474 6.25293,2.33011 0.68911,0.005 3.22144,-4.15273 5.62742,-9.24023 2.40597,-5.0875 9.77112,-20.5 16.36701,-34.25 6.59589,-13.75 16.83748,-35.125 22.7591,-47.5 5.92161,-12.375 16.78014,-35.03335 24.13006,-50.35188 C 393.98643,401.32958 400,387.97394 400,386.96892 c 0,-1.00502 -3.75143,-11.60043 -8.33651,-23.54536 l -8.33651,-21.71805 15.58651,-13.61014 c 8.57258,-7.48558 17.42294,-15.18182 19.66746,-17.10276 2.24453,-1.92093 19.09118,-16.54261 37.43701,-32.49261 18.34583,-15.95 37.00497,-32.15 41.46477,-36 4.45979,-3.85 14.58521,-12.625 22.50094,-19.5 7.91573,-6.875 18.0369,-15.65 22.49149,-19.5 4.4546,-3.85 16.37626,-14.2 26.49259,-23 10.11633,-8.8 22.03923,-19.15 26.49533,-23 11.18956,-9.6676 96.20128,-83.515355 105.33255,-91.5 6.48346,-5.669331 34.12122,-23.410946 35.04174,-22.494481 0.18555,0.184737 -3.41445,4.76858 -8,10.186318 C 723.25182,59.109575 703.525,82.386383 684,105.41808 c -19.525,23.03169 -39.55,46.69226 -44.5,52.57904 -4.95,5.88678 -25.1882,29.78315 -44.97377,53.10306 -19.78557,23.3199 -54.63837,64.44982 -77.45067,91.39982 -22.81229,26.95 -46.32948,54.67969 -52.26042,61.62154 -7.08337,8.29071 -11.77783,14.81019 -13.68128,19 -3.69462,8.13247 -7.00894,15.21517 -22.6385,48.37846 -6.99867,14.85 -14.18454,30.15 -15.96859,34 -3.34196,7.21198 -13.11972,28.0169 -43.19757,91.91498 l -17.37648,36.91498 2.50085,6.58502 C 357.72051,609.51719 359,617.28037 359,628.5 c 0,23.60364 -8.26231,44.19822 -25.81856,64.35515 -13.57864,15.5901 -39.53235,30.80679 -59.18144,34.69813 -5.21698,1.03318 -12.00994,4.80881 -16.36805,9.09761 -10.71965,10.54916 -18.62425,27.40654 -26.65713,56.84911 -5.83809,21.39806 -5.24166,19.97828 -8.49846,20.23056 -1.637,0.12681 -4.61775,-0.64778 -6.62389,-1.72131 z m 58.03965,-111.3693 C 308.5047,689.8359 333,660.06061 333,628.79128 c 0,-45.42222 -50.38774,-68.86781 -97.46393,-45.3503 -33.30353,16.63721 -51.55672,50.26209 -43.64449,80.39916 4.80093,18.28637 20.09462,32.73225 40.48109,38.23703 10.55301,2.84953 29.93559,2.17859 41.51945,-1.43722 z M 438,363.30013 c 4.66102,-2.7387 6.5,-6.30969 6.5,-12.62189 0,-5.55221 -0.19499,-6.00365 -4.21128,-9.75 C 436.45344,337.35073 435.58978,337 430.61545,337 c -4.43342,0 -6.04816,0.49322 -8.57464,2.61912 -6.14921,5.17422 -7.58046,11.48046 -4.12397,18.17072 3.84708,7.44627 12.66888,9.86674 20.08316,5.51029 z M 70.066447,529.46271 C 18.167971,515.45286 -4.3822224,459.35525 20.982626,407.35798 43.939178,360.29766 97.960111,334.30112 144.20607,348.05905 c 9.3315,2.77607 16.68152,6.50199 24.66521,12.50344 l 6.35799,4.77939 31.13537,-4.78195 c 34.92965,-5.3647 57.405,-8.80221 75.13536,-11.49164 6.6,-1.00112 27.42368,-4.20486 46.27484,-7.11941 20.91101,-3.23302 34.62368,-4.93847 35.16952,-4.37404 0.93469,0.96653 18.19628,45.62201 17.78892,46.01965 -0.12831,0.12524 -9.68328,0.95397 -21.23328,1.84162 -11.55,0.88765 -28.425,2.25595 -37.5,3.04067 -9.075,0.78471 -20.325,1.69992 -25,2.03379 -4.675,0.33388 -18.625,1.45761 -31,2.4972 -12.375,1.03958 -32.5214,2.67956 -44.76977,3.64439 -12.24838,0.96484 -22.75467,2.05393 -23.34732,2.42021 -0.75023,0.46366 -0.53781,3.05986 0.6993,8.54679 5.76409,25.5654 -1.78639,56.3693 -19.57885,79.8764 l -4.84864,6.40594 1.92264,5.05998 c 3.17594,8.35839 2.08346,15.96138 -3.21758,22.39246 -7.60227,9.22287 -24.75146,10.23865 -32.15842,1.90481 l -1.79863,-2.02372 -6.70137,2.80913 c -13.19071,5.52938 -21.50911,7.20628 -37.70136,7.6002 -13.608383,0.33105 -15.875193,0.12865 -24.433553,-2.18165 z m 37.302523,-24.95274 c 23.68122,-5.01724 45.11643,-20.8603 56.89504,-42.0519 6.93675,-12.48034 8.97211,-19.5648 9.49678,-33.05527 0.78514,-20.18807 -2.97351,-30.78549 -15.30506,-43.15225 -8.24978,-8.27332 -15.7072,-12.29835 -27.27111,-14.71914 -9.40131,-1.96808 -16.14012,-1.93443 -26.41431,0.1319 -25.819022,5.19269 -50.318565,24.63396 -61.316669,48.65699 -6.079179,13.27867 -8.272582,33.25649 -5.000883,45.54874 5.233224,19.66198 20.363938,34.2601 40.047242,38.63759 8.026065,1.78496 20.452996,1.7864 28.86897,0.003 z M 480.06162,370.94029 c 5.74116,-6.84703 61.10507,-72.28187 82.11622,-97.05351 8.68319,-10.23728 16.35789,-19.06478 17.05489,-19.61668 0.697,-0.5519 10.26727,-5.06699 21.26727,-10.03354 11,-4.96655 33.95,-15.42216 51,-23.23468 17.05,-7.81253 43.6,-19.94525 59,-26.9616 15.4,-7.01636 43.46494,-19.81831 62.36653,-28.44878 18.90159,-8.63048 34.52644,-15.53186 34.7219,-15.33641 0.19545,0.19546 -2.03203,4.60552 -4.94996,9.80014 l -5.30534,9.44477 -28.91656,18.69818 c -29.8382,19.29413 -38.27348,24.72037 -49.41657,31.78866 -3.575,2.2677 -9.76672,6.23586 -13.75938,8.81812 -3.99266,2.58227 -44.49266,28.63758 -90,57.90069 C 569.73328,315.96876 529.575,341.80301 526,344.11511 c -9.1166,5.89606 -19.91885,12.84418 -40.5,26.05003 -3.85,2.47035 -7.675,4.87942 -8.5,5.35349 -0.825,0.47407 0.55273,-1.58618 3.06162,-4.57834 z"
         id="path2" />
    </g>
  </g>
</svg>
